<svg version="1.1" xmlns="http://www.w3.org/2000/svg" xmlns:xlink="http://www.w3.org/1999/xlink" width="1827" height="572"><defs></defs><g><g transform="translate(-30,-530) scale(1,1)"><rect fill="#C0C0C0" stroke="none" x="411" y="547" width="624" height="145" opacity="0.2"></rect></g><g transform="translate(-30,-530) scale(1,1)"><rect fill="#ffffff" stroke="none" x="404" y="540" width="624" height="145"></rect></g><g transform="translate(-30,-530) scale(1,1)"><path fill="none" stroke="#000000" d="M 404 540 L 1028 540 L 1028 685 L 404 685 L 404 540 Z Z" stroke-miterlimit="10"></path></g><g transform="translate(-30,-530) scale(1,1)"><path fill="none" stroke="#000000" d="M 404 565 L 1028 565" stroke-miterlimit="10"></path></g><g transform="translate(-30,-530) scale(1,1)"><path fill="none" stroke="#000000" d="M 404 648 L 1028 648" stroke-miterlimit="10"></path></g><g transform="translate(-30,-530) scale(1,1)"><g><path fill="none" stroke="none"></path><text fill="#000000" stroke="none" font-family="Arial" font-size="13px" font-style="normal" font-weight="bold" text-decoration="none" x="694" y="559.5">Usuario</text></g></g><g transform="translate(-30,-530) scale(1,1)"><g><path fill="none" stroke="none"></path><text fill="#000000" stroke="none" font-family="Arial" font-size="13px" font-style="normal" font-weight="normal" text-decoration="none" x="409" y="582.5">-email: String</text></g></g><g transform="translate(-30,-530) scale(1,1)"><g><path fill="none" stroke="none"></path><text fill="#000000" stroke="none" font-family="Arial" font-size="13px" font-style="normal" font-weight="normal" text-decoration="none" x="409" y="597.5">-contrasena: String</text></g></g><g transform="translate(-30,-530) scale(1,1)"><g><path fill="none" stroke="none"></path><text fill="#000000" stroke="none" font-family="Arial" font-size="13px" font-style="normal" font-weight="normal" text-decoration="none" x="409" y="612.5">-estrellasPref: Integer</text></g></g><g transform="translate(-30,-530) scale(1,1)"><g><path fill="none" stroke="none"></path><text fill="#000000" stroke="none" font-family="Arial" font-size="13px" font-style="normal" font-weight="normal" text-decoration="none" x="409" y="627.5">-clasePref: String</text></g></g><g transform="translate(-30,-530) scale(1,1)"><g><path fill="none" stroke="none"></path><text fill="#000000" stroke="none" font-family="Arial" font-size="13px" font-style="normal" font-weight="normal" text-decoration="none" x="409" y="642.5">-tipo: String</text></g></g><g transform="translate(-30,-530) scale(1,1)"><g><path fill="none" stroke="none"></path><text fill="#000000" stroke="none" font-family="Arial" font-size="13px" font-style="normal" font-weight="normal" text-decoration="none" x="409" y="665.5">+registrar(nombre: String, contrasena: String, estrellasPref: Integer, clasePref: String, tipo: String): Integer</text></g></g><g transform="translate(-30,-530) scale(1,1)"><g><path fill="none" stroke="none"></path><text fill="#000000" stroke="none" font-family="Arial" font-size="13px" font-style="normal" font-weight="normal" text-decoration="none" x="409" y="680.5">+actualizar(): Integer</text></g></g><g transform="translate(-30,-530) scale(1,1)"><rect fill="#C0C0C0" stroke="none" x="67" y="563" width="245" height="115" opacity="0.2"></rect></g><g transform="translate(-30,-530) scale(1,1)"><rect fill="#ffffff" stroke="none" x="60" y="556" width="245" height="115"></rect></g><g transform="translate(-30,-530) scale(1,1)"><path fill="none" stroke="#000000" d="M 60 556 L 305 556 L 305 671 L 60 671 L 60 556 Z Z" stroke-miterlimit="10"></path></g><g transform="translate(-30,-530) scale(1,1)"><path fill="none" stroke="#000000" d="M 60 581 L 305 581" stroke-miterlimit="10"></path></g><g transform="translate(-30,-530) scale(1,1)"><path fill="none" stroke="#000000" d="M 60 604 L 305 604" stroke-miterlimit="10"></path></g><g transform="translate(-30,-530) scale(1,1)"><g><path fill="none" stroke="none"></path><text fill="#000000" stroke="none" font-family="Arial" font-size="13px" font-style="normal" font-weight="bold" text-decoration="none" x="157.5" y="575.5">Equipaje</text></g></g><g transform="translate(-30,-530) scale(1,1)"><g><path fill="none" stroke="none"></path><text fill="#000000" stroke="none" font-family="Arial" font-size="13px" font-style="normal" font-weight="normal" text-decoration="none" x="65" y="598.5">-tipoVuelo: String</text></g></g><g transform="translate(-30,-530) scale(1,1)"><g><path fill="none" stroke="none"></path><text fill="#000000" stroke="none" font-family="Arial" font-size="13px" font-style="normal" font-weight="normal" text-decoration="none" x="65" y="621.5">+crear(categoria: String): Integer</text></g></g><g transform="translate(-30,-530) scale(1,1)"><g><path fill="none" stroke="none"></path><text fill="#000000" stroke="none" font-family="Arial" font-size="13px" font-style="normal" font-weight="normal" text-decoration="none" x="65" y="636.5">+listar(): Integer</text></g></g><g transform="translate(-30,-530) scale(1,1)"><g><path fill="none" stroke="none"></path><text fill="#000000" stroke="none" font-family="Arial" font-size="13px" font-style="normal" font-weight="normal" text-decoration="none" x="65" y="651.5">+getTipoVuelo(): String</text></g></g><g transform="translate(-30,-530) scale(1,1)"><g><path fill="none" stroke="none"></path><text fill="#000000" stroke="none" font-family="Arial" font-size="13px" font-style="normal" font-weight="normal" text-decoration="none" x="65" y="666.5">+Operation2()</text></g></g><g transform="translate(-30,-530) scale(1,1)"><rect fill="#C0C0C0" stroke="none" x="439" y="783" width="330" height="100" opacity="0.2"></rect></g><g transform="translate(-30,-530) scale(1,1)"><rect fill="#ffffff" stroke="none" x="432" y="776" width="330" height="100"></rect></g><g transform="translate(-30,-530) scale(1,1)"><path fill="none" stroke="#000000" d="M 432 776 L 762 776 L 762 876 L 432 876 L 432 776 Z Z" stroke-miterlimit="10"></path></g><g transform="translate(-30,-530) scale(1,1)"><path fill="none" stroke="#000000" d="M 432 801 L 762 801" stroke-miterlimit="10"></path></g><g transform="translate(-30,-530) scale(1,1)"><path fill="none" stroke="#000000" d="M 432 839 L 762 839" stroke-miterlimit="10"></path></g><g transform="translate(-30,-530) scale(1,1)"><g><path fill="none" stroke="none"></path><text fill="#000000" stroke="none" font-family="Arial" font-size="13px" font-style="normal" font-weight="bold" text-decoration="none" x="572" y="795.5">Itinerario</text></g></g><g transform="translate(-30,-530) scale(1,1)"><g><path fill="none" stroke="none"></path><text fill="#000000" stroke="none" font-family="Arial" font-size="13px" font-style="normal" font-weight="normal" text-decoration="none" x="437" y="818.5">-alarma: String</text></g></g><g transform="translate(-30,-530) scale(1,1)"><g><path fill="none" stroke="none"></path><text fill="#000000" stroke="none" font-family="Arial" font-size="13px" font-style="normal" font-weight="normal" text-decoration="none" x="437" y="833.5">-tipoVuelo: String</text></g></g><g transform="translate(-30,-530) scale(1,1)"><g><path fill="none" stroke="none"></path><text fill="#000000" stroke="none" font-family="Arial" font-size="13px" font-style="normal" font-weight="normal" text-decoration="none" x="437" y="856.5">+crear(numVuelo: String, tipoVuelo: String): Integer</text></g></g><g transform="translate(-30,-530) scale(1,1)"><g><path fill="none" stroke="none"></path><text fill="#000000" stroke="none" font-family="Arial" font-size="13px" font-style="normal" font-weight="normal" text-decoration="none" x="437" y="871.5">+listar(): Integer</text></g></g><g transform="translate(-30,-530) scale(1,1)"><rect fill="#C0C0C0" stroke="none" x="399" y="979" width="415" height="115" opacity="0.2"></rect></g><g transform="translate(-30,-530) scale(1,1)"><rect fill="#ffffff" stroke="none" x="392" y="972" width="415" height="115"></rect></g><g transform="translate(-30,-530) scale(1,1)"><path fill="none" stroke="#000000" d="M 392 972 L 807 972 L 807 1087 L 392 1087 L 392 972 Z Z" stroke-miterlimit="10"></path></g><g transform="translate(-30,-530) scale(1,1)"><path fill="none" stroke="#000000" d="M 392 997 L 807 997" stroke-miterlimit="10"></path></g><g transform="translate(-30,-530) scale(1,1)"><path fill="none" stroke="#000000" d="M 392 1065 L 807 1065" stroke-miterlimit="10"></path></g><g transform="translate(-30,-530) scale(1,1)"><g><path fill="none" stroke="none"></path><text fill="#000000" stroke="none" font-family="Arial" font-size="13px" font-style="normal" font-weight="bold" text-decoration="none" x="572.5" y="991.5">Actividad</text></g></g><g transform="translate(-30,-530) scale(1,1)"><g><path fill="none" stroke="none"></path><text fill="#000000" stroke="none" font-family="Arial" font-size="13px" font-style="normal" font-weight="normal" text-decoration="none" x="397" y="1014.5">-nombre: String</text></g></g><g transform="translate(-30,-530) scale(1,1)"><g><path fill="none" stroke="none"></path><text fill="#000000" stroke="none" font-family="Arial" font-size="13px" font-style="normal" font-weight="normal" text-decoration="none" x="397" y="1029.5">-horarioInicio: String</text></g></g><g transform="translate(-30,-530) scale(1,1)"><g><path fill="none" stroke="none"></path><text fill="#000000" stroke="none" font-family="Arial" font-size="13px" font-style="normal" font-weight="normal" text-decoration="none" x="397" y="1044.5">-horarioFin: String</text></g></g><g transform="translate(-30,-530) scale(1,1)"><g><path fill="none" stroke="none"></path><text fill="#000000" stroke="none" font-family="Arial" font-size="13px" font-style="normal" font-weight="normal" text-decoration="none" x="397" y="1059.5">-descripcion: String</text></g></g><g transform="translate(-30,-530) scale(1,1)"><g><path fill="none" stroke="none"></path><text fill="#000000" stroke="none" font-family="Arial" font-size="13px" font-style="normal" font-weight="normal" text-decoration="none" x="397" y="1082.5">+crear(nombre: String, horaInicio: String, horaTermino: String): Integer</text></g></g><g transform="translate(-30,-530) scale(1,1)"><rect fill="#C0C0C0" stroke="none" x="1507" y="819" width="239" height="115" opacity="0.2"></rect></g><g transform="translate(-30,-530) scale(1,1)"><rect fill="#ffffff" stroke="none" x="1500" y="812" width="239" height="115"></rect></g><g transform="translate(-30,-530) scale(1,1)"><path fill="none" stroke="#000000" d="M 1500 812 L 1739 812 L 1739 927 L 1500 927 L 1500 812 Z Z" stroke-miterlimit="10"></path></g><g transform="translate(-30,-530) scale(1,1)"><path fill="none" stroke="#000000" d="M 1500 837 L 1739 837" stroke-miterlimit="10"></path></g><g transform="translate(-30,-530) scale(1,1)"><path fill="none" stroke="#000000" d="M 1500 890 L 1739 890" stroke-miterlimit="10"></path></g><g transform="translate(-30,-530) scale(1,1)"><g><path fill="none" stroke="none"></path><text fill="#000000" stroke="none" font-family="Arial" font-size="13px" font-style="normal" font-weight="bold" text-decoration="none" x="1604.5" y="831.5">Aicm</text></g></g><g transform="translate(-30,-530) scale(1,1)"><g><path fill="none" stroke="none"></path><text fill="#000000" stroke="none" font-family="Arial" font-size="13px" font-style="normal" font-weight="normal" text-decoration="none" x="1505" y="854.5">-sitioWeb: String</text></g></g><g transform="translate(-30,-530) scale(1,1)"><g><path fill="none" stroke="none"></path><text fill="#000000" stroke="none" font-family="Arial" font-size="13px" font-style="normal" font-weight="normal" text-decoration="none" x="1505" y="869.5">-telefono: String</text></g></g><g transform="translate(-30,-530) scale(1,1)"><g><path fill="none" stroke="none"></path><text fill="#000000" stroke="none" font-family="Arial" font-size="13px" font-style="normal" font-weight="normal" text-decoration="none" x="1505" y="884.5">-direccion: String</text></g></g><g transform="translate(-30,-530) scale(1,1)"><g><path fill="none" stroke="none"></path><text fill="#000000" stroke="none" font-family="Arial" font-size="13px" font-style="normal" font-weight="normal" text-decoration="none" x="1505" y="907.5">+consultarInfo(): Integer</text></g></g><g transform="translate(-30,-530) scale(1,1)"><g><path fill="none" stroke="none"></path><text fill="#000000" stroke="none" font-family="Arial" font-size="13px" font-style="normal" font-weight="normal" text-decoration="none" x="1505" y="922.5">+visualizarMapa(): Integer</text></g></g><g transform="translate(-30,-530) scale(1,1)"><rect fill="#C0C0C0" stroke="none" x="1059" y="547" width="795" height="205" opacity="0.2"></rect></g><g transform="translate(-30,-530) scale(1,1)"><rect fill="#ffffff" stroke="none" x="1052" y="540" width="795" height="205"></rect></g><g transform="translate(-30,-530) scale(1,1)"><path fill="none" stroke="#000000" d="M 1052 540 L 1847 540 L 1847 745 L 1052 745 L 1052 540 Z Z" stroke-miterlimit="10"></path></g><g transform="translate(-30,-530) scale(1,1)"><path fill="none" stroke="#000000" d="M 1052 565 L 1847 565" stroke-miterlimit="10"></path></g><g transform="translate(-30,-530) scale(1,1)"><path fill="none" stroke="#000000" d="M 1052 678 L 1847 678" stroke-miterlimit="10"></path></g><g transform="translate(-30,-530) scale(1,1)"><g><path fill="none" stroke="none"></path><text fill="#000000" stroke="none" font-family="Arial" font-size="13px" font-style="normal" font-weight="bold" text-decoration="none" x="1426" y="559.5">Servicio</text></g></g><g transform="translate(-30,-530) scale(1,1)"><g><path fill="none" stroke="none"></path><text fill="#000000" stroke="none" font-family="Arial" font-size="13px" font-style="normal" font-weight="normal" text-decoration="none" x="1057" y="582.5">-nombreLugar: String</text></g></g><g transform="translate(-30,-530) scale(1,1)"><g><path fill="none" stroke="none"></path><text fill="#000000" stroke="none" font-family="Arial" font-size="13px" font-style="normal" font-weight="normal" text-decoration="none" x="1057" y="597.5">-tipo: String</text></g></g><g transform="translate(-30,-530) scale(1,1)"><g><path fill="none" stroke="none"></path><text fill="#000000" stroke="none" font-family="Arial" font-size="13px" font-style="normal" font-weight="normal" text-decoration="none" x="1057" y="612.5">-rangoPrecios: String</text></g></g><g transform="translate(-30,-530) scale(1,1)"><g><path fill="none" stroke="none"></path><text fill="#000000" stroke="none" font-family="Arial" font-size="13px" font-style="normal" font-weight="normal" text-decoration="none" x="1057" y="627.5">-telefono: String</text></g></g><g transform="translate(-30,-530) scale(1,1)"><g><path fill="none" stroke="none"></path><text fill="#000000" stroke="none" font-family="Arial" font-size="13px" font-style="normal" font-weight="normal" text-decoration="none" x="1057" y="642.5">-local: String</text></g></g><g transform="translate(-30,-530) scale(1,1)"><g><path fill="none" stroke="none"></path><text fill="#000000" stroke="none" font-family="Arial" font-size="13px" font-style="normal" font-weight="normal" text-decoration="none" x="1057" y="657.5">-horario: String</text></g></g><g transform="translate(-30,-530) scale(1,1)"><g><path fill="none" stroke="none"></path><text fill="#000000" stroke="none" font-family="Arial" font-size="13px" font-style="normal" font-weight="normal" text-decoration="none" x="1057" y="672.5">-categoria: String</text></g></g><g transform="translate(-30,-530) scale(1,1)"><g><path fill="none" stroke="none"></path><text fill="#000000" stroke="none" font-family="Arial" font-size="13px" font-style="normal" font-weight="normal" text-decoration="none" x="1057" y="695.5">+consultar(): Integer</text></g></g><g transform="translate(-30,-530) scale(1,1)"><g><path fill="none" stroke="none"></path><text fill="#000000" stroke="none" font-family="Arial" font-size="13px" font-style="normal" font-weight="normal" text-decoration="none" x="1057" y="710.5">+agregar(nombreLugar: String, tipo: String, rangoPrecios: String, telefono: String, local: String, horario: String, categoria: String): Integer</text></g></g><g transform="translate(-30,-530) scale(1,1)"><g><path fill="none" stroke="none"></path><text fill="#000000" stroke="none" font-family="Arial" font-size="13px" font-style="normal" font-weight="normal" text-decoration="none" x="1057" y="725.5">+eliminar(nombreLugar: String): Integer</text></g></g><g transform="translate(-30,-530) scale(1,1)"><g><path fill="none" stroke="none"></path><text fill="#000000" stroke="none" font-family="Arial" font-size="13px" font-style="normal" font-weight="normal" text-decoration="none" x="1057" y="740.5">+actualizar(nombreLugar: String): Integer</text></g></g><g transform="translate(-30,-530) scale(1,1)"><rect fill="#C0C0C0" stroke="none" x="867" y="783" width="132" height="220" opacity="0.2"></rect></g><g transform="translate(-30,-530) scale(1,1)"><rect fill="#ffffff" stroke="none" x="860" y="776" width="132" height="220"></rect></g><g transform="translate(-30,-530) scale(1,1)"><path fill="none" stroke="#000000" d="M 860 776 L 992 776 L 992 996 L 860 996 L 860 776 Z Z" stroke-miterlimit="10"></path></g><g transform="translate(-30,-530) scale(1,1)"><path fill="none" stroke="#000000" d="M 860 801 L 992 801" stroke-miterlimit="10"></path></g><g transform="translate(-30,-530) scale(1,1)"><path fill="none" stroke="#000000" d="M 860 974 L 992 974" stroke-miterlimit="10"></path></g><g transform="translate(-30,-530) scale(1,1)"><g><path fill="none" stroke="none"></path><text fill="#000000" stroke="none" font-family="Arial" font-size="13px" font-style="normal" font-weight="bold" text-decoration="none" x="909.5" y="795.5">Vuelo</text></g></g><g transform="translate(-30,-530) scale(1,1)"><g><path fill="none" stroke="none"></path><text fill="#000000" stroke="none" font-family="Arial" font-size="13px" font-style="normal" font-weight="normal" text-decoration="none" x="865" y="818.5">-clase: String</text></g></g><g transform="translate(-30,-530) scale(1,1)"><g><path fill="none" stroke="none"></path><text fill="#000000" stroke="none" font-family="Arial" font-size="13px" font-style="normal" font-weight="normal" text-decoration="none" x="865" y="833.5">-fechaSalida: String</text></g></g><g transform="translate(-30,-530) scale(1,1)"><g><path fill="none" stroke="none"></path><text fill="#000000" stroke="none" font-family="Arial" font-size="13px" font-style="normal" font-weight="normal" text-decoration="none" x="865" y="848.5">-fechaLlegada: String</text></g></g><g transform="translate(-30,-530) scale(1,1)"><g><path fill="none" stroke="none"></path><text fill="#000000" stroke="none" font-family="Arial" font-size="13px" font-style="normal" font-weight="normal" text-decoration="none" x="865" y="863.5">-origen: String</text></g></g><g transform="translate(-30,-530) scale(1,1)"><g><path fill="none" stroke="none"></path><text fill="#000000" stroke="none" font-family="Arial" font-size="13px" font-style="normal" font-weight="normal" text-decoration="none" x="865" y="878.5">-destino: String</text></g></g><g transform="translate(-30,-530) scale(1,1)"><g><path fill="none" stroke="none"></path><text fill="#000000" stroke="none" font-family="Arial" font-size="13px" font-style="normal" font-weight="normal" text-decoration="none" x="865" y="893.5">-numero: String</text></g></g><g transform="translate(-30,-530) scale(1,1)"><g><path fill="none" stroke="none"></path><text fill="#000000" stroke="none" font-family="Arial" font-size="13px" font-style="normal" font-weight="normal" text-decoration="none" x="865" y="908.5">-estado: String</text></g></g><g transform="translate(-30,-530) scale(1,1)"><g><path fill="none" stroke="none"></path><text fill="#000000" stroke="none" font-family="Arial" font-size="13px" font-style="normal" font-weight="normal" text-decoration="none" x="865" y="923.5">-horaSalida: String</text></g></g><g transform="translate(-30,-530) scale(1,1)"><g><path fill="none" stroke="none"></path><text fill="#000000" stroke="none" font-family="Arial" font-size="13px" font-style="normal" font-weight="normal" text-decoration="none" x="865" y="938.5">-horaLlegada: String</text></g></g><g transform="translate(-30,-530) scale(1,1)"><g><path fill="none" stroke="none"></path><text fill="#000000" stroke="none" font-family="Arial" font-size="13px" font-style="normal" font-weight="normal" text-decoration="none" x="865" y="953.5">-terminal: Integer</text></g></g><g transform="translate(-30,-530) scale(1,1)"><g><path fill="none" stroke="none"></path><text fill="#000000" stroke="none" font-family="Arial" font-size="13px" font-style="normal" font-weight="normal" text-decoration="none" x="865" y="968.5">-puerta: Integer</text></g></g><g transform="translate(-30,-530) scale(1,1)"><g><path fill="none" stroke="none"></path><text fill="#000000" stroke="none" font-family="Arial" font-size="13px" font-style="normal" font-weight="normal" text-decoration="none" x="865" y="991.5">+getDetalle(): String</text></g></g><g transform="translate(-30,-530) scale(1,1)"><path fill="none" stroke="#000000" d="M 306 612.7677902621723 L 403 612.5861423220974" stroke-miterlimit="10"></path></g><g transform="translate(-30,-530) scale(1,1)"><path fill="#FFFFFF" stroke="none" d="M 392.84522594005955 616.8146838900095 L 403 612.5861423220974 L 392.829459983599 608.3956631400961 L 381.00003857527486 612.6273407517317"></path></g><g transform="translate(-30,-530) scale(1,1)"><path fill="none" stroke="#000000" d="M 392.84522594005955 616.8146838900095 L 403 612.5861423220974 L 392.829459983599 608.3956631400961 L 381.00003857527486 612.6273407517317 L 392.84522594005955 616.8146838900095" stroke-miterlimit="10"></path></g><g transform="translate(-30,-530) scale(1,1)"><g><path fill="none" stroke="none"></path><text fill="#000000" stroke="none" font-family="Arial" font-size="13px" font-style="normal" font-weight="normal" text-decoration="none" x="311" y="629.7677902621723">1..*</text></g></g><g transform="translate(-30,-530) scale(1,1)"><g><path fill="none" stroke="none"></path><text fill="#000000" stroke="none" font-family="Arial" font-size="13px" font-style="normal" font-weight="normal" text-decoration="none" x="392" y="631.5861423220974">1</text></g></g><g transform="translate(-30,-530) scale(1,1)"><path fill="none" stroke="#000000" d="M 596 776 L 596 685" stroke-miterlimit="10"></path></g><g transform="translate(-30,-530) scale(1,1)"><path fill="#FFFFFF" stroke="none" d="M 600.209517756016 695.1626748576241 L 596 685 L 591.790482243984 695.1626748576241 L 596 707"></path></g><g transform="translate(-30,-530) scale(1,1)"><path fill="none" stroke="#000000" d="M 600.209517756016 695.1626748576241 L 596 685 L 591.790482243984 695.1626748576241 L 596 707 L 600.209517756016 695.1626748576241" stroke-miterlimit="10"></path></g><g transform="translate(-30,-530) scale(1,1)"><g><path fill="none" stroke="none"></path><text fill="#000000" stroke="none" font-family="Arial" font-size="13px" font-style="normal" font-weight="normal" text-decoration="none" x="603" y="770">1</text></g></g><g transform="translate(-30,-530) scale(1,1)"><g><path fill="none" stroke="none"></path><text fill="#000000" stroke="none" font-family="Arial" font-size="13px" font-style="normal" font-weight="normal" text-decoration="none" x="605" y="700">1</text></g></g><g transform="translate(-30,-530) scale(1,1)"><path fill="none" stroke="#000000" d="M 1620 812 L 1620 745" stroke-miterlimit="10"></path></g><g transform="translate(-30,-530) scale(1,1)"><path fill="#000000" stroke="none" d="M 1615.7904822439841 801.8373251423759 L 1620 812 L 1624.2095177560159 801.8373251423759 L 1620 790"></path></g><g transform="translate(-30,-530) scale(1,1)"><path fill="none" stroke="#000000" d="M 1615.7904822439841 801.8373251423759 L 1620 812 L 1624.2095177560159 801.8373251423759 L 1620 790 L 1615.7904822439841 801.8373251423759" stroke-miterlimit="10"></path></g><g transform="translate(-30,-530) scale(1,1)"><g><path fill="none" stroke="none"></path><text fill="#000000" stroke="none" font-family="Arial" font-size="13px" font-style="normal" font-weight="normal" text-decoration="none" x="1628" y="805">1</text></g></g><g transform="translate(-30,-530) scale(1,1)"><g><path fill="none" stroke="none"></path><text fill="#000000" stroke="none" font-family="Arial" font-size="13px" font-style="normal" font-weight="normal" text-decoration="none" x="1627" y="764">1..*</text></g></g><g transform="translate(-30,-530) scale(1,1)"><path fill="none" stroke="#000000" d="M 598.4285714285714 971 L 597.5024630541872 877" stroke-miterlimit="10"></path></g><g transform="translate(-30,-530) scale(1,1)"><path fill="#000000" stroke="none" d="M 601.8118965406106 887.1207105988706 L 597.5024630541872 877 L 593.3932696006216 887.2036527362104 L 597.7192013039389 898.9989323498004"></path></g><g transform="translate(-30,-530) scale(1,1)"><path fill="none" stroke="#000000" d="M 601.8118965406106 887.1207105988706 L 597.5024630541872 877 L 593.3932696006216 887.2036527362104 L 597.7192013039389 898.9989323498004 L 601.8118965406106 887.1207105988706" stroke-miterlimit="10"></path></g><g transform="translate(-30,-530) scale(1,1)"><g><path fill="none" stroke="none"></path><text fill="#000000" stroke="none" font-family="Arial" font-size="13px" font-style="normal" font-weight="normal" text-decoration="none" x="602.4285714285714" y="964">1..*</text></g></g><g transform="translate(-30,-530) scale(1,1)"><g><path fill="none" stroke="none"></path><text fill="#000000" stroke="none" font-family="Arial" font-size="13px" font-style="normal" font-weight="normal" text-decoration="none" x="605.5024630541872" y="892">1</text></g></g><g transform="translate(-30,-530) scale(1,1)"><rect fill="#C0C0C0" stroke="none" x="47" y="771" width="290" height="115" opacity="0.2"></rect></g><g transform="translate(-30,-530) scale(1,1)"><rect fill="#ffffff" stroke="none" x="40" y="764" width="290" height="115"></rect></g><g transform="translate(-30,-530) scale(1,1)"><path fill="none" stroke="#000000" d="M 40 764 L 330 764 L 330 879 L 40 879 L 40 764 Z Z" stroke-miterlimit="10"></path></g><g transform="translate(-30,-530) scale(1,1)"><path fill="none" stroke="#000000" d="M 40 789 L 330 789" stroke-miterlimit="10"></path></g><g transform="translate(-30,-530) scale(1,1)"><path fill="none" stroke="#000000" d="M 40 827 L 330 827" stroke-miterlimit="10"></path></g><g transform="translate(-30,-530) scale(1,1)"><g><path fill="none" stroke="none"></path><text fill="#000000" stroke="none" font-family="Arial" font-size="13px" font-style="normal" font-weight="bold" text-decoration="none" x="166" y="783.5">Objeto</text></g></g><g transform="translate(-30,-530) scale(1,1)"><g><path fill="none" stroke="none"></path><text fill="#000000" stroke="none" font-family="Arial" font-size="13px" font-style="normal" font-weight="normal" text-decoration="none" x="45" y="806.5">-nombre: String</text></g></g><g transform="translate(-30,-530) scale(1,1)"><g><path fill="none" stroke="none"></path><text fill="#000000" stroke="none" font-family="Arial" font-size="13px" font-style="normal" font-weight="normal" text-decoration="none" x="45" y="821.5">-categoria: String</text></g></g><g transform="translate(-30,-530) scale(1,1)"><g><path fill="none" stroke="none"></path><text fill="#000000" stroke="none" font-family="Arial" font-size="13px" font-style="normal" font-weight="normal" text-decoration="none" x="45" y="844.5">+crear(nombre: String, categoria: String): Integer</text></g></g><g transform="translate(-30,-530) scale(1,1)"><g><path fill="none" stroke="none"></path><text fill="#000000" stroke="none" font-family="Arial" font-size="13px" font-style="normal" font-weight="normal" text-decoration="none" x="45" y="859.5">+eliminar(nombre: String): Integer</text></g></g><g transform="translate(-30,-530) scale(1,1)"><g><path fill="none" stroke="none"></path><text fill="#000000" stroke="none" font-family="Arial" font-size="13px" font-style="normal" font-weight="normal" text-decoration="none" x="45" y="874.5">+modificar(nombre: String): Integer</text></g></g><g transform="translate(-30,-530) scale(1,1)"><rect fill="#C0C0C0" stroke="none" x="1495" y="999" width="269" height="100" opacity="0.2"></rect></g><g transform="translate(-30,-530) scale(1,1)"><rect fill="#ffffff" stroke="none" x="1488" y="992" width="269" height="100"></rect></g><g transform="translate(-30,-530) scale(1,1)"><path fill="none" stroke="#000000" d="M 1488 992 L 1757 992 L 1757 1092 L 1488 1092 L 1488 992 Z Z" stroke-miterlimit="10"></path></g><g transform="translate(-30,-530) scale(1,1)"><path fill="none" stroke="#000000" d="M 1488 1017 L 1757 1017" stroke-miterlimit="10"></path></g><g transform="translate(-30,-530) scale(1,1)"><path fill="none" stroke="#000000" d="M 1488 1055 L 1757 1055" stroke-miterlimit="10"></path></g><g transform="translate(-30,-530) scale(1,1)"><g><path fill="none" stroke="none"></path><text fill="#000000" stroke="none" font-family="Arial" font-size="13px" font-style="normal" font-weight="bold" text-decoration="none" x="1606.5" y="1011.5">Mapa</text></g></g><g transform="translate(-30,-530) scale(1,1)"><g><path fill="none" stroke="none"></path><text fill="#000000" stroke="none" font-family="Arial" font-size="13px" font-style="normal" font-weight="normal" text-decoration="none" x="1493" y="1034.5">-ancho: Integer</text></g></g><g transform="translate(-30,-530) scale(1,1)"><g><path fill="none" stroke="none"></path><text fill="#000000" stroke="none" font-family="Arial" font-size="13px" font-style="normal" font-weight="normal" text-decoration="none" x="1493" y="1049.5">-largo: Integer</text></g></g><g transform="translate(-30,-530) scale(1,1)"><g><path fill="none" stroke="none"></path><text fill="#000000" stroke="none" font-family="Arial" font-size="13px" font-style="normal" font-weight="normal" text-decoration="none" x="1493" y="1072.5">+visualizarMapa(): Integer</text></g></g><g transform="translate(-30,-530) scale(1,1)"><g><path fill="none" stroke="none"></path><text fill="#000000" stroke="none" font-family="Arial" font-size="13px" font-style="normal" font-weight="normal" text-decoration="none" x="1493" y="1087.5">+crear(ancho: Integer, largo: Integer): Integer</text></g></g><g transform="translate(-30,-530) scale(1,1)"><path fill="none" stroke="#000000" d="M 860 828 L 762 828" stroke-miterlimit="10"></path></g><g transform="translate(-30,-530) scale(1,1)"><path fill="#FFFFFF" stroke="none" d="M 772.1626748576241 823.790482243984 L 762 828 L 772.1626748576241 832.209517756016 L 784 828"></path></g><g transform="translate(-30,-530) scale(1,1)"><path fill="none" stroke="#000000" d="M 772.1626748576241 823.790482243984 L 762 828 L 772.1626748576241 832.209517756016 L 784 828 L 772.1626748576241 823.790482243984" stroke-miterlimit="10"></path></g><g transform="translate(-30,-530) scale(1,1)"><g><path fill="none" stroke="none"></path><text fill="#000000" stroke="none" font-family="Arial" font-size="13px" font-style="normal" font-weight="normal" text-decoration="none" x="832" y="820">1..*</text></g></g><g transform="translate(-30,-530) scale(1,1)"><g><path fill="none" stroke="none"></path><text fill="#000000" stroke="none" font-family="Arial" font-size="13px" font-style="normal" font-weight="normal" text-decoration="none" x="771" y="821">1</text></g></g><g transform="translate(-30,-530) scale(1,1)"><path fill="none" stroke="#000000" d="M 1620.0231213872833 928 L 1621.1156069364163 991" stroke-miterlimit="10"></path></g><g transform="translate(-30,-530) scale(1,1)"><path fill="#000000" stroke="none" d="M 1624.4082112248955 938.0881607399997 L 1620.0231213872833 928 L 1615.9904412786175 938.2341336292415 L 1620.404566929202 949.9966929173127"></path></g><g transform="translate(-30,-530) scale(1,1)"><path fill="none" stroke="#000000" d="M 1624.4082112248955 938.0881607399997 L 1620.0231213872833 928 L 1615.9904412786175 938.2341336292415 L 1620.404566929202 949.9966929173127 L 1624.4082112248955 938.0881607399997" stroke-miterlimit="10"></path></g><g transform="translate(-30,-530) scale(1,1)"><g><path fill="none" stroke="none"></path><text fill="#000000" stroke="none" font-family="Arial" font-size="13px" font-style="normal" font-weight="normal" text-decoration="none" x="1605.0231213872833" y="947">1</text></g></g><g transform="translate(-30,-530) scale(1,1)"><g><path fill="none" stroke="none"></path><text fill="#000000" stroke="none" font-family="Arial" font-size="13px" font-style="normal" font-weight="normal" text-decoration="none" x="1606.1156069364163" y="989">1</text></g></g><g transform="translate(-30,-530) scale(1,1)"><rect fill="#C0C0C0" stroke="none" x="1023" y="983" width="251" height="115" opacity="0.2"></rect></g><g transform="translate(-30,-530) scale(1,1)"><rect fill="#ffffff" stroke="none" x="1016" y="976" width="251" height="115"></rect></g><g transform="translate(-30,-530) scale(1,1)"><path fill="none" stroke="#000000" d="M 1016 976 L 1267 976 L 1267 1091 L 1016 1091 L 1016 976 Z Z" stroke-miterlimit="10"></path></g><g transform="translate(-30,-530) scale(1,1)"><path fill="none" stroke="#000000" d="M 1016 1001 L 1267 1001" stroke-miterlimit="10"></path></g><g transform="translate(-30,-530) scale(1,1)"><path fill="none" stroke="#000000" d="M 1016 1069 L 1267 1069" stroke-miterlimit="10"></path></g><g transform="translate(-30,-530) scale(1,1)"><g><path fill="none" stroke="none"></path><text fill="#000000" stroke="none" font-family="Arial" font-size="13px" font-style="normal" font-weight="bold" text-decoration="none" x="1111.5" y="995.5">RutaVuelo</text></g></g><g transform="translate(-30,-530) scale(1,1)"><g><path fill="none" stroke="none"></path><text fill="#000000" stroke="none" font-family="Arial" font-size="13px" font-style="normal" font-weight="normal" text-decoration="none" x="1021" y="1018.5">-latitud: String</text></g></g><g transform="translate(-30,-530) scale(1,1)"><g><path fill="none" stroke="none"></path><text fill="#000000" stroke="none" font-family="Arial" font-size="13px" font-style="normal" font-weight="normal" text-decoration="none" x="1021" y="1033.5">-longitud: String</text></g></g><g transform="translate(-30,-530) scale(1,1)"><g><path fill="none" stroke="none"></path><text fill="#000000" stroke="none" font-family="Arial" font-size="13px" font-style="normal" font-weight="normal" text-decoration="none" x="1021" y="1048.5">-altitud: String</text></g></g><g transform="translate(-30,-530) scale(1,1)"><g><path fill="none" stroke="none"></path><text fill="#000000" stroke="none" font-family="Arial" font-size="13px" font-style="normal" font-weight="normal" text-decoration="none" x="1021" y="1063.5">-velocidad: Integer</text></g></g><g transform="translate(-30,-530) scale(1,1)"><g><path fill="none" stroke="none"></path><text fill="#000000" stroke="none" font-family="Arial" font-size="13px" font-style="normal" font-weight="normal" text-decoration="none" x="1021" y="1086.5">+solicitarRuta(): String</text></g></g><g transform="translate(-30,-530) scale(1,1)"><path fill="none" stroke="#000000" d="M 1088 976 L 1088 888 L 992 888" stroke-miterlimit="10"></path></g><g transform="translate(-30,-530) scale(1,1)"><path fill="#FFFFFF" stroke="none" d="M 1083.7904822439841 965.8373251423759 L 1088 976 L 1092.2095177560159 965.8373251423759 L 1088 954"></path></g><g transform="translate(-30,-530) scale(1,1)"><path fill="none" stroke="#000000" d="M 1083.7904822439841 965.8373251423759 L 1088 976 L 1092.2095177560159 965.8373251423759 L 1088 954 L 1083.7904822439841 965.8373251423759" stroke-miterlimit="10"></path></g><g transform="translate(-30,-530) scale(1,1)"><g><path fill="none" stroke="none"></path><text fill="#000000" stroke="none" font-family="Arial" font-size="13px" font-style="normal" font-weight="normal" text-decoration="none" x="1096" y="971">1</text></g></g><g transform="translate(-30,-530) scale(1,1)"><g><path fill="none" stroke="none"></path><text fill="#000000" stroke="none" font-family="Arial" font-size="13px" font-style="normal" font-weight="normal" text-decoration="none" x="999" y="883">1</text></g></g><g transform="translate(-30,-530) scale(1,1)"><path fill="none" stroke="#000000" d="M 184.16346153846155 763 L 182.85096153846155 672" stroke-miterlimit="10"></path></g><g transform="translate(-30,-530) scale(1,1)"><path fill="#000000" stroke="none" d="M 187.20660331773908 682.1009100921952 L 182.85096153846155 672 L 178.78844335466124 682.2223258608935 L 183.16823623192778 693.9977120803252"></path></g><g transform="translate(-30,-530) scale(1,1)"><path fill="none" stroke="#000000" d="M 187.20660331773908 682.1009100921952 L 182.85096153846155 672 L 178.78844335466124 682.2223258608935 L 183.16823623192778 693.9977120803252 L 187.20660331773908 682.1009100921952" stroke-miterlimit="10"></path></g><g transform="translate(-30,-530) scale(1,1)"><g><path fill="none" stroke="none"></path><text fill="#000000" stroke="none" font-family="Arial" font-size="13px" font-style="normal" font-weight="normal" text-decoration="none" x="190.16346153846155" y="757">1..*</text></g></g><g transform="translate(-30,-530) scale(1,1)"><g><path fill="none" stroke="none"></path><text fill="#000000" stroke="none" font-family="Arial" font-size="13px" font-style="normal" font-weight="normal" text-decoration="none" x="191.85096153846155" y="688">1</text></g></g><g transform="translate(-30,-530) scale(1,1)"><path fill="none" stroke="#000000" d="M 928 776 L 928 685" stroke-miterlimit="10"></path></g><g transform="translate(-30,-530) scale(1,1)"><path fill="#FFFFFF" stroke="none" d="M 932.209517756016 695.1626748576241 L 928 685 L 923.790482243984 695.1626748576241 L 928 707"></path></g><g transform="translate(-30,-530) scale(1,1)"><path fill="none" stroke="#000000" d="M 932.209517756016 695.1626748576241 L 928 685 L 923.790482243984 695.1626748576241 L 928 707 L 932.209517756016 695.1626748576241" stroke-miterlimit="10"></path></g><g transform="translate(-30,-530) scale(1,1)"><g><path fill="none" stroke="none"></path><text fill="#000000" stroke="none" font-family="Arial" font-size="13px" font-style="normal" font-weight="normal" text-decoration="none" x="930" y="761">1..*</text></g></g><g transform="translate(-30,-530) scale(1,1)"><g><path fill="none" stroke="none"></path><text fill="#000000" stroke="none" font-family="Arial" font-size="13px" font-style="normal" font-weight="normal" text-decoration="none" x="937" y="713">1</text></g></g><g transform="translate(-30,-530) scale(1,1)"><path fill="none" stroke="#000000" d="M 1016 685 L 1016 860 L 1500 860" stroke-miterlimit="10"></path></g><g transform="translate(-30,-530) scale(1,1)"><path fill="#FFFFFF" stroke="none" d="M 1020.209517756016 695.1626748576241 L 1016 685 L 1011.790482243984 695.1626748576241 L 1016 707"></path></g><g transform="translate(-30,-530) scale(1,1)"><path fill="none" stroke="#000000" d="M 1020.209517756016 695.1626748576241 L 1016 685 L 1011.790482243984 695.1626748576241 L 1016 707 L 1020.209517756016 695.1626748576241" stroke-miterlimit="10"></path></g><g transform="translate(-30,-530) scale(1,1)"><g><path fill="none" stroke="none"></path><text fill="#000000" stroke="none" font-family="Arial" font-size="13px" font-style="normal" font-weight="normal" text-decoration="none" x="995" y="713">1</text></g></g><g transform="translate(-30,-530) scale(1,1)"><g><path fill="none" stroke="none"></path><text fill="#000000" stroke="none" font-family="Arial" font-size="13px" font-style="normal" font-weight="normal" text-decoration="none" x="1475" y="879">1</text></g></g></g></svg>